<svg xmlns="http://www.w3.org/2000/svg" width="30" height="30" viewBox="0 0 30 30">
  <g id="tick" transform="translate(-8.145 402.798)">
    <path id="Path_1681" data-name="Path 1681" d="M28.041-443.614c-.276.176-1.583,1.924-9.38,12.537L9.6-418.74l-3.547-4.823c-1.952-2.651-3.64-4.887-3.752-4.967a1.449,1.449,0,0,0-1.307,0,2.041,2.041,0,0,0-.733,1.078,2.587,2.587,0,0,0,.047,1.693c.182.5,8.248,11.483,8.612,11.73a1.528,1.528,0,0,0,.6.216.815.815,0,0,0,.674-.168c.311-.192,1.255-1.445,10-13.367s9.673-13.2,9.813-13.623a1.9,1.9,0,0,0,.123-.926c-.07-1.054-.639-1.821-1.419-1.893A.849.849,0,0,0,28.041-443.614Z" transform="translate(8 41)" fill="#0fd143"/>
  </g>
</svg>
