<svg xmlns="http://www.w3.org/2000/svg" width="30" height="30" viewBox="0 0 30 30">
  <g id="close" transform="translate(-14 466.86)">
    <path id="Path_1684" data-name="Path 1684" d="M.944-511.769A1.547,1.547,0,0,0,0-510.4a1.975,1.975,0,0,0,.094.5c.088.264.621.815,6.465,6.666l6.365,6.373-6.342,6.349C3.1-487.023.2-484.08.147-483.968a1.5,1.5,0,0,0,.293,1.677,1.437,1.437,0,0,0,1.53.346c.264-.088.815-.621,6.658-6.466L15-494.779l6.377,6.367c5.843,5.845,6.394,6.378,6.658,6.466a1.437,1.437,0,0,0,1.53-.346,1.438,1.438,0,0,0,.346-1.53c-.088-.264-.621-.815-6.465-6.666l-6.365-6.373,6.365-6.379c5.843-5.845,6.377-6.4,6.465-6.66a1.438,1.438,0,0,0-.346-1.53,1.437,1.437,0,0,0-1.53-.346c-.264.088-.815.621-6.664,6.466L15-498.942l-6.377-6.367c-5.843-5.845-6.394-6.378-6.658-6.466A1.539,1.539,0,0,0,.944-511.769Z" transform="translate(14 45)" fill="red"/>
  </g>
</svg>
