<svg id="Social_Network_Facebook" data-name="Social Network/Facebook" xmlns="http://www.w3.org/2000/svg" width="27" height="27" viewBox="0 0 27 27">
  <rect id="Area" width="27" height="27" transform="translate(0 0)" fill="none"/>
  <path id="Facebook" d="M13.5,27H2.7A2.7,2.7,0,0,1,0,24.3V2.7A2.7,2.7,0,0,1,2.7,0H24.3A2.7,2.7,0,0,1,27,2.7V24.3A2.7,2.7,0,0,1,24.3,27H17.55V16.834h3.46l.555-3.811H17.55V11.394c0-1.57.507-2.182,1.808-2.182H21.6V5.566l-.043-.006A19.762,19.762,0,0,0,18.8,5.4a5.293,5.293,0,0,0-3.882,1.335A5.772,5.772,0,0,0,13.5,10.976v2.047H9.45v3.811H13.5V27Z" fill="#fff"/>
</svg>
