<svg id="Social_Network_Instagram" data-name="Social Network/Instagram" xmlns="http://www.w3.org/2000/svg" width="27" height="27" viewBox="0 0 27 27">
  <rect id="Area" width="27" height="27" fill="none"/>
  <path id="Instagram" d="M18.667,0a8,8,0,0,1,8,8V18.667a8,8,0,0,1-8,8H8a8,8,0,0,1-8-8V8A8,8,0,0,1,8,0ZM13.333,6.667A6.667,6.667,0,1,0,20,13.333,6.673,6.673,0,0,0,13.333,6.667Zm8-2.667A1.434,1.434,0,0,0,20,5.333a1.333,1.333,0,0,0,2.667,0A1.434,1.434,0,0,0,21.333,4Zm-8,5.333a4,4,0,1,0,4,4A4,4,0,0,0,13.333,9.333Z" fill="#fff" fill-rule="evenodd"/>
</svg>
