<svg id="Social_Network_Linkedin" data-name="Social Network/Linkedin" xmlns="http://www.w3.org/2000/svg" width="27" height="27" viewBox="0 0 27 27">
  <rect id="Area" width="27" height="27" fill="none"/>
  <path id="Linkedin" d="M24,0a2.667,2.667,0,0,1,2.667,2.667V24A2.667,2.667,0,0,1,24,26.667H2.667A2.667,2.667,0,0,1,0,24V2.667A2.667,2.667,0,0,1,2.667,0ZM9.249,9.818H5.667V21.333H9.249Zm9.12-.286a3.765,3.765,0,0,0-3.389,1.86h-.049V9.818H11.5V21.333h3.58v-5.7c0-1.5.287-2.956,2.15-2.956,1.837,0,1.861,1.718,1.861,3.053v5.6h3.58V15.018C22.667,11.917,22,9.532,18.369,9.532ZM7.422,4A2.086,2.086,0,1,0,9.509,6.085,2.087,2.087,0,0,0,7.422,4Z" transform="translate(0)" fill="#fff" fill-rule="evenodd"/>
</svg>
