<svg xmlns="http://www.w3.org/2000/svg" width="25.199" height="24.844" viewBox="0 0 25.199 24.844">
  <g id="edit" transform="translate(0 -2.612)">
    <g id="Group_5374" data-name="Group 5374" transform="translate(0 2.612)">
      <g id="Group_5373" data-name="Group 5373" transform="translate(0 0)">
        <path id="Path_1649" data-name="Path 1649" d="M234.086,5.735a3.088,3.088,0,0,0-.887-2.2,3.194,3.194,0,0,0-2.2-.923,3.052,3.052,0,0,0-2.165.887L233.2,7.9A2.91,2.91,0,0,0,234.086,5.735Z" transform="translate(-213.288 -2.612)"/>
        <rect id="Rectangle_308" data-name="Rectangle 308" width="6.174" height="14.305" transform="translate(14.551 1.917) rotate(45)"/>
        <path id="Path_1650" data-name="Path 1650" d="M43.312,200.621l-.994,4.507,4.507-.994Z" transform="translate(-39.443 -187.17)"/>
        <path id="Path_1651" data-name="Path 1651" d="M24.489,347.429H.71a.71.71,0,0,0,0,1.42H24.489a.71.71,0,0,0,0-1.42Z" transform="translate(0 -324.005)"/>
      </g>
    </g>
  </g>
</svg>
