<svg xmlns="http://www.w3.org/2000/svg" width="75" height="120" viewBox="0 0 75 120">
  <g id="swap" transform="translate(-108.044 423.477)">
    <path id="Path_1682" data-name="Path 1682" d="M103.844-447.3c-.682.283-16.956,24-17.51,25.48a6.46,6.46,0,0,0-.064,3.613c.128.471,3.839,6.221,8.254,12.787,7.806,11.53,8.979,13.038,10.152,13.07a4.015,4.015,0,0,0,2.538-2.168c.512-1.257.448-2.576-.277-8.169-.363-2.67-.64-4.964-.64-5.121s6.206-.22,13.927-.189l13.906.094,1.386.943c1.216.817,2.047,1.885,7.081,9.174,5.012,7.32,5.844,8.388,7.145,9.3a4.325,4.325,0,0,0,3.37,1.005,4.231,4.231,0,0,0,3.306-.974c3.327-2.356,5.14-7.383,4.5-12.473-.469-3.739-.981-4.775-6.953-13.7-6.846-10.242-8.808-12.818-11.069-14.484-3.5-2.576-3.05-2.513-20.859-2.513-12.455,0-15.74-.094-15.74-.408,0-.189.32-2.8.7-5.718a40.536,40.536,0,0,0,.555-6.441c-.171-1.225-1.45-3.142-2.09-3.142a2.339,2.339,0,0,1-.7-.126A1.57,1.57,0,0,0,103.844-447.3Z" transform="translate(21.999 24)" fill="#0c8ed3"/>
    <path id="Path_1683" data-name="Path 1683" d="M80.253-255.526c-4.029,1.506-6.78,7.688-5.927,13.462.533,3.672,1.066,4.707,6.95,13.494,6.844,10.23,8.805,12.8,11.065,14.467,3.5,2.573,3.049,2.51,20.851,2.51,12.451,0,15.734.094,15.734.377,0,.22-.32,2.824-.7,5.743a39.934,39.934,0,0,0-.554,6.4,4.2,4.2,0,0,0,2.132,3.138c1.663.533,1.642.565,10.468-12.427,4.562-6.684,8.443-12.552,8.613-13.023a6.447,6.447,0,0,0,.064-3.609c-.3-1.161-16.054-24.446-17.077-25.23a1.784,1.784,0,0,0-2.516-.094,4.412,4.412,0,0,0-1.706,3.766c0,.69.3,3.389.64,6.057.362,2.667.64,4.958.64,5.115s-6.2.22-13.9.188l-13.922-.094-1.471-1.036c-1.322-.91-2.089-1.883-7.057-9.163-4.9-7.155-5.778-8.285-6.993-9.132A6.5,6.5,0,0,0,80.253-255.526Z" transform="translate(33.874 -107.711)" fill="#0c8ed3"/>
  </g>
</svg>
