<svg id="Social_Network_Twitter" data-name="Social Network/Twitter" xmlns="http://www.w3.org/2000/svg" width="27" height="27" viewBox="0 0 27 27">
  <rect id="Area" width="27" height="27" fill="none"/>
  <path id="Twitter" d="M24.3,27H2.7A2.7,2.7,0,0,1,0,24.3V2.7A2.7,2.7,0,0,1,2.7,0H24.3A2.7,2.7,0,0,1,27,2.7V24.3A2.7,2.7,0,0,1,24.3,27ZM4.051,19.241h0a11.287,11.287,0,0,0,5.943,1.682A10.766,10.766,0,0,0,21.026,10.258c0-.162,0-.325-.011-.485a7.73,7.73,0,0,0,1.936-1.94,7.977,7.977,0,0,1-2.227.59,3.775,3.775,0,0,0,1.7-2.074,7.943,7.943,0,0,1-2.463.91,3.956,3.956,0,0,0-2.83-1.185,3.819,3.819,0,0,0-3.877,3.748,3.664,3.664,0,0,0,.1.854A11.177,11.177,0,0,1,5.365,6.76a3.663,3.663,0,0,0-.524,1.886,3.713,3.713,0,0,0,1.724,3.12A3.986,3.986,0,0,1,4.81,11.3v.047a3.79,3.79,0,0,0,3.11,3.675,4.035,4.035,0,0,1-1.752.064,3.863,3.863,0,0,0,3.622,2.6,7.9,7.9,0,0,1-4.815,1.606A8.065,8.065,0,0,1,4.051,19.241Z" fill="#fff"/>
</svg>
