<svg xmlns="http://www.w3.org/2000/svg" width="76" height="81.627" viewBox="0 0 76 81.627">
  <g id="upload" transform="translate(-15.9 511.888)">
    <path id="Path_1678" data-name="Path 1678" d="M146.948-511.627c-.336.164-3.515,3.962-8.941,10.637-4.646,5.7-8.682,10.686-8.972,11.081a2.134,2.134,0,0,0-.535,1.661,2.338,2.338,0,0,0,1.36,2.335c.566.279,1.085.312,5.7.312h5.09l.031,17.575c.046,17.476.046,17.592.367,18.035a4.338,4.338,0,0,0,.734.789c.413.329.6.345,6.205.345s5.793-.016,6.206-.345a4.338,4.338,0,0,0,.734-.789c.321-.444.321-.559.367-18.035l.031-17.575,5.09-.016c5.64-.016,5.839-.049,6.588-1.036a2.021,2.021,0,0,0,.474-1.578,2.1,2.1,0,0,0-.535-1.677c-.29-.395-4.326-5.376-8.972-11.081-5.793-7.135-8.605-10.456-8.957-10.654A2.231,2.231,0,0,0,146.948-511.627Z" transform="translate(-94.088)" fill="#aaa"/>
    <path id="Path_1679" data-name="Path 1679" d="M15.947-148.87l.047,11.147.411.921a5.163,5.163,0,0,0,2.5,2.6l.886.427H88.007l.886-.427a5.163,5.163,0,0,0,2.5-2.6l.411-.921.047-11.147L91.9-160H81.755v15.783H26.045V-160H15.9Z" transform="translate(0 -296.484)" fill="#aaa"/>
  </g>
</svg>
